
<svg version="1.1" id="Capa_1" xmlns="http://www.w3.org/2000/svg" xmlns:xlink="http://www.w3.org/1999/xlink" x="0px" y="0px"
	 viewBox="0 0 595.28 841.89" style="enable-background:new 0 0 595.28 841.89;" xml:space="preserve">

<path d="M551.36,242.87c-11.68-29.18-29.95-53.73-54.83-71.43c-99.29-70.67-266.7-5.88-373.86,144.7
	C15.51,466.76,9.13,646.12,108.44,716.82c96.29,68.5,256.57,9.69,363.93-131.22c3.36-4.39,6.69-8.89,9.95-13.49
	c0.79-1.1,1.58-2.24,2.37-3.37c9.37-13.38,17.95-27,25.73-40.73c0,0,0,0,0.02-0.04c1.31-2.32,2.6-4.63,3.88-6.97
	c4.94-10.85,5.87-23.57,1.61-35.75c-1.79-5.13-4.37-9.78-7.58-13.82c-12.31-15.71-33.69-22.64-53.63-15.66
	c-4.68,1.64-8.98,3.94-12.78,6.77c-0.11,0.04-0.18,0.09-0.24,0.17c-3.71,2.74-7.86,4.96-12.44,6.56c-6.84,2.39-13.85,3.1-20.62,2.34
	c-2.43-0.27-4.8-0.71-7.12-1.38c-3.52-0.95-6.96-2.35-10.17-4.09c-0.07-0.03-0.12-0.08-0.16-0.12c-4.17-2.29-7.96-5.21-11.25-8.7
	c-2.05-1.82-4.06-3.69-6-5.67c0,0,0,0-0.01-0.03c-1.73-1.73-3.4-3.56-5.03-5.44c-0.21-0.25-0.4-0.48-0.61-0.73
	c-1.51-1.54-3.65-2.33-5.84-2.09l-0.03,0.01c-0.47,0.08-0.93,0.21-1.4,0.37c-0.37,0.13-0.7,0.27-1.02,0.45
	c-0.08,0.03-0.18,0.06-0.28,0.13c-0.1,0.06-0.2,0.1-0.27,0.15c-0.2,0.1-0.37,0.22-0.53,0.33c-0.08,0.03-0.15,0.08-0.22,0.14
	c-1.76,1.21-3.04,2.95-3.71,4.93l-0.02,0.04c-0.26,0.44-0.5,0.94-0.71,1.43c-0.21,0.49-0.42,1-0.57,1.5
	c-1.42,3.45-2.43,8.23-2.69,13.58c-0.4,7.88,0.9,14.71,3.15,17.88c0.79,1.17,1.73,1.82,2.75,1.87c1.32,0.07,2.66-0.93,3.78-2.77
	c0.14-0.2,0.28-0.39,0.39-0.67l0.03-0.01c0.55-0.04,1.07-0.08,1.59-0.09c0.78-0.04,1.57-0.08,2.31-0.07c0.82-0.02,1.6,0,2.37,0.03
	l1.55,0.05c0.84,0.03,1.66,0.1,2.45,0.18c0.03-0.01,0.03-0.01,0.03-0.01c8.33,0.78,15.01,3.34,18.82,7.56
	c4.04,1.1,8.09,2.87,11.94,5.27c2.18,1.33,4.28,2.87,6.31,4.61c2.48,2.11,4.67,4.39,6.57,6.8c0.04,0.02,0.07,0.03,0.05,0.07
	c1.23,0.81,2.36,1.77,3.42,2.85c-0.49-0.13-0.98-0.19-1.49-0.22c6.12,8.96,8.54,19.1,6.7,27.86c-0.71,3.47-2.07,6.66-4.16,9.54
	c0,0,0,0-0.02,0.04c-0.2,0.28-0.42,0.56-0.66,0.82c-8.48,5.98-19.49,9.03-31.08,8.21l-0.03,0.01c-3.33-0.22-6.66-0.8-10.04-1.69
	c-2.6-0.68-5.13-1.57-7.53-2.62c-7.04-4.51-13.66-9.69-19.8-15.42c-0.22-0.22-0.44-0.41-0.66-0.62c-2.14-2-4.2-4.08-6.23-6.24
	c-0.09-0.09-0.18-0.17-0.24-0.27c-3.82-4.16-7.41-8.54-10.72-13.17c-4.63-6.41-8.75-13.29-12.29-20.62
	c-2.32-4.77-4.38-9.74-6.18-14.87c-0.39-1.1-0.75-2.22-1.1-3.31l-0.17-0.47c-28.12-80.39,11.52-168.38,89.07-203.51
	c4.82-2.51,9.86-4.72,15.15-6.57c5.6-1.96,11.28-3.44,16.94-4.48c-0.01,0.06-0.01,0.15-0.01,0.21c-1.04,8.93-0.09,18.22,3.07,27.27
	c0.63,1.79,1.33,3.55,2.13,5.25c1.32,2.93,2.86,5.73,4.6,8.34c4.78,4.29,9.17,9.07,13.07,14.32c16.06,12.83,38.19,17.35,59.02,10.06
	c4.42-1.55,8.56-3.55,12.38-5.95c6.58-4.07,12.17-9.27,16.65-15.27c5.64-7.52,9.52-16.26,11.32-25.54
	c1.73-8.99,1.46-18.52-1.09-27.84C553.98,249.69,552.71,246.24,551.36,242.87z M61.57,614.41c-6.06-17.33,3.08-36.27,20.41-42.33
	c17.31-6.05,36.26,3.05,42.32,20.39c6.06,17.33-3.07,36.29-20.38,42.35C86.6,640.88,67.64,631.74,61.57,614.41z M160.37,718.34
	c-17.31,6.05-36.27-3.08-42.32-20.39c-6.06-17.33,3.07-36.29,20.38-42.35c17.33-6.06,36.29,3.07,42.36,20.4
	C186.84,693.32,177.7,712.28,160.37,718.34z M103.09,531.81c-17.31,6.05-36.27-3.08-42.33-20.41c-6.05-17.31,3.08-36.27,20.39-42.32
	c17.33-6.06,36.29,3.07,42.35,20.38C129.56,506.79,120.43,525.74,103.09,531.81z M104.16,415.17c-6.05-17.31,3.08-36.27,20.39-42.32
	c17.33-6.06,36.29,3.07,42.35,20.38c6.06,17.33-3.07,36.29-20.41,42.36C129.18,441.64,110.22,432.51,104.16,415.17z M260.99,715.68
	c-17.33,6.06-36.29-3.07-42.35-20.38c-6.06-17.33,3.07-36.29,20.4-42.36c17.31-6.05,36.27,3.08,42.33,20.41
	C287.44,690.67,278.3,709.63,260.99,715.68z M203.86,345.11c-17.31,6.05-36.27-3.08-42.33-20.41c-6.05-17.31,3.08-36.27,20.39-42.32
	c17.33-6.06,36.29,3.07,42.35,20.38C230.33,320.09,221.19,339.05,203.86,345.11z"/>
</svg>
